Coordinates
version=1
nRows=32
nColumns=22
inDegrees=yes

Units are S.I. units (second, meters, Newtons, ...)
If the header above contains a line with 'inDegrees', this indicates whether rotational values are in degrees (yes) or radians (no).

endheader
time	pelvis_tilt	pelvis_list	pelvis_rotation	pelvis_tx	pelvis_ty	pelvis_tz	hip_flexion_r	hip_adduction_r	hip_rotation_r	knee_angle_r	ankle_angle_r	subtalar_angle_r	hip_flexion_l	hip_adduction_l	hip_rotation_l	knee_angle_l	ankle_angle_l	subtalar_angle_l	lumbar_extension	lumbar_bending	lumbar_rotation
      0.01000000	     -6.00129850	     -2.25790582	     -1.35113390	      0.08897632	      0.95529828	      1.22347855	      8.39406988	      3.75227133	     -0.43650788	    -12.58778982	     11.16587044	     -0.22958363	      6.67562886	     -2.12387792	     -6.62239092	    -11.36320895	      9.10447500	     -8.72830922	     -1.60347791	      0.06741869	     -2.08423278
      0.02000000	     -6.00155344	     -2.25993449	     -1.35688508	      0.08900027	      0.95529207	      1.22343156	      8.39265552	      3.75122225	     -0.43699485	    -12.58769762	     11.16549845	     -0.22900462	      6.67252000	     -2.12258622	     -6.62333077	    -11.36269306	      9.10485943	     -8.72851390	     -1.59759754	      0.06536927	     -2.08727428
      0.03000000	     -6.00926660	     -2.25760674	     -1.36482324	      0.08904079	      0.95527481	      1.22337663	      8.39167860	      3.74498961	     -0.43207366	    -12.57491658	     11.16561831	     -0.22532542	      6.66586545	     -2.11561411	     -6.63706659	    -11.34144747	      9.11012264	     -8.73076095	     -1.58004621	      0.05877905	     -2.09724813
      0.04000000	     -6.01416629	     -2.25483323	     -1.37596297	      0.08907700	      0.95526336	      1.22332699	      8.38829343	      3.73912863	     -0.42278489	    -12.56314502	     11.16739736	     -0.22093808	      6.66030267	     -2.10873532	     -6.64644268	    -11.32913575	      9.11249610	     -8.73273155	     -1.56457973	      0.04998539	     -2.09791967
      0.05000000	     -6.01343145	     -2.25743398	     -1.37859334	      0.08910525	      0.95525671	      1.22326463	      8.38501964	      3.73779365	     -0.42088394	    -12.56351106	     11.16761298	     -0.22020479	      6.65650637	     -2.10738397	     -6.64791659	    -11.32959901	      9.11279654	     -8.73308100	     -1.55595173	      0.04686009	     -2.09831867
      0.06000000	     -6.02164304	     -2.25280042	     -1.39023422	      0.08915347	      0.95524048	      1.22321401	      8.37945827	      3.72976271	     -0.40759403	    -12.54179223	     11.17207085	     -0.21465691	      6.64785699	     -2.09858612	     -6.66503406	    -11.30622389	      9.11971854	     -8.73693455	     -1.53258638	      0.03618505	     -2.09708577
      0.07000000	     -6.01988142	     -2.25538827	     -1.39408299	      0.08917300	      0.95523608	      1.22315937	      8.37635660	      3.72901514	     -0.40573871	    -12.54276309	     11.17223905	     -0.21389854	      6.64401274	     -2.09785174	     -6.66557196	    -11.30768970	      9.11955596	     -8.73729556	     -1.52468133	      0.03276425	     -2.09671751
      0.08000000	     -6.01865633	     -2.25743931	     -1.39870416	      0.08919644	      0.95523241	      1.22310923	      8.37269664	      3.72793815	     -0.40354734	    -12.54163297	     11.17281424	     -0.21282898	      6.63917966	     -2.09686039	     -6.66719933	    -11.30677781	      9.12023551	     -8.73810508	     -1.51434497	      0.02890567	     -2.09565997
      0.09000000	     -6.02469145	     -2.25434354	     -1.41383162	      0.08923866	      0.95522111	      1.22307422	      8.36638426	      3.72273805	     -0.38717190	    -12.52098633	     11.17759178	     -0.20508232	      6.62509493	     -2.09023257	     -6.68227520	    -11.27757108	      9.12690142	     -8.74477862	     -1.49245926	      0.01972538	     -2.07897115
      0.10000000	     -6.02135885	     -2.25724608	     -1.41454944	      0.08925076	      0.95522164	      1.22302310	      8.36364115	      3.72239696	     -0.38482030	    -12.52430556	     11.17728713	     -0.20434217	      6.62116753	     -2.09013072	     -6.68253217	    -11.27978043	      9.12634318	     -8.74522185	     -1.48570776	      0.01748324	     -2.07742981
      0.11000000	     -6.01819996	     -2.26018423	     -1.41662091	      0.08926081	      0.95522189	      1.22297814	      8.36095022	      3.72257546	     -0.38255391	    -12.52693246	     11.17726018	     -0.20343659	      6.61700709	     -2.09026565	     -6.68299198	    -11.28063085	      9.12640403	     -8.74601888	     -1.47894198	      0.01517367	     -2.07448208
      0.12000000	     -6.01492255	     -2.26324658	     -1.41893195	      0.08927214	      0.95522280	      1.22293499	      8.35824647	      3.72309991	     -0.37995015	    -12.52978353	     11.17755157	     -0.20239608	      6.61215953	     -2.09054195	     -6.68380982	    -11.28059142	      9.12720617	     -8.74723358	     -1.47193391	      0.01348678	     -2.06915096
      0.13000000	     -6.00825504	     -2.26949641	     -1.44462851	      0.08927860	      0.95522781	      1.22293005	      8.35679484	      3.73088713	     -0.35910598	    -12.53873118	     11.18401753	     -0.19385600	      6.59047087	     -2.09562788	     -6.69532069	    -11.26190617	      9.13896598	     -8.75966704	     -1.47232514	      0.01468833	     -2.01647300
      0.14000000	     -6.00436055	     -2.27169146	     -1.44386883	      0.08928763	      0.95522881	      1.22288112	      8.35411194	      3.73021815	     -0.35609233	    -12.54262644	     11.18378373	     -0.19322433	      6.58726943	     -2.09467921	     -6.69729913	    -11.26442533	      9.13873449	     -8.76038510	     -1.46697940	      0.01402623	     -2.01582859
      0.15000000	     -5.98915274	     -2.27332381	     -1.46014932	      0.08926355	      0.95524365	      1.22286449	      8.35342994	      3.73224633	     -0.33272292	    -12.56738991	     11.18809409	     -0.18686584	      6.57555689	     -2.09598913	     -6.71500699	    -11.27453411	      9.14151333	     -8.77063545	     -1.48355020	      0.01109815	     -1.98833856
      0.16000000	     -5.98611001	     -2.27530447	     -1.45977625	      0.08927160	      0.95524457	      1.22281932	      8.35176526	      3.73198506	     -0.33149290	    -12.56991535	     11.18841287	     -0.18649907	      6.57298525	     -2.09461299	     -6.71634325	    -11.27628640	      9.14164126	     -8.77129102	     -1.47878303	      0.01087056	     -1.98578973
      0.17000000	     -5.97304252	     -2.27659352	     -1.47521827	      0.08924839	      0.95525791	      1.22280059	      8.35531128	      3.73263246	     -0.31988271	    -12.59765681	     11.19442788	     -0.18281909	      6.56433881	     -2.09523846	     -6.72633180	    -11.28817108	      9.14612557	     -8.78010351	     -1.49309350	      0.00807769	     -1.94687429
      0.18000000	     -5.96932709	     -2.27817419	     -1.47500812	      0.08925927	      0.95526256	      1.22275791	      8.35403163	      3.73216898	     -0.31748799	    -12.60257203	     11.19475321	     -0.18242970	      6.56133435	     -2.09360677	     -6.72837331	    -11.29071241	      9.14651709	     -8.78102415	     -1.48885468	      0.00822373	     -1.94434704
      0.19000000	     -5.95447295	     -2.27817373	     -1.48942274	      0.08922136	      0.95528107	      1.22273954	      8.36134756	      3.73171681	     -0.30217487	    -12.63846475	     11.19877825	     -0.17982829	      6.55396947	     -2.09300440	     -6.73920262	    -11.30649769	      9.15230096	     -8.78908931	     -1.50915033	      0.00511951	     -1.91314489
      0.20000000	     -5.95059609	     -2.27951363	     -1.48978179	      0.08923361	      0.95528665	      1.22269678	      8.35973679	      3.73053316	     -0.29953374	    -12.64379679	     11.19953929	     -0.17940424	      6.55093254	     -2.09113178	     -6.74235045	    -11.30927340	      9.15335846	     -8.79032044	     -1.50535674	      0.00579108	     -1.90880528
      0.21000000	     -5.93551977	     -2.27873352	     -1.50597953	      0.08919798	      0.95530723	      1.22268274	      8.36444471	      3.72989107	     -0.28400240	    -12.67540745	     11.20389270	     -0.17629459	      6.54294826	     -2.08946986	     -6.75937356	    -11.32418221	      9.16466508	     -8.79864634	     -1.52673688	      0.00254290	     -1.87599997
      0.22000000	     -5.93289341	     -2.27998086	     -1.50596957	      0.08920867	      0.95531475	      1.22264128	      8.36253089	      3.72880361	     -0.28233665	    -12.67796070	     11.20413210	     -0.17595984	      6.54066604	     -2.08725653	     -6.76160132	    -11.32576550	      9.16554286	     -8.79911480	     -1.52273340	      0.00424522	     -1.87429953
      0.23000000	     -5.92930349	     -2.28066284	     -1.50830077	      0.08921547	      0.95532143	      1.22259798	      8.36061485	      3.72612388	     -0.27966948	    -12.68222428	     11.20419095	     -0.17524747	      6.53797760	     -2.08509232	     -6.76490427	    -11.32877828	      9.16814792	     -8.79992807	     -1.52113187	      0.00779956	     -1.87043752
      0.24000000	     -5.92806196	     -2.28192195	     -1.50935276	      0.08920719	      0.95532817	      1.22257108	      8.36050538	      3.72592367	     -0.27926719	    -12.68275339	     11.20418324	     -0.17507533	      6.53794901	     -2.08428878	     -6.76554921	    -11.32914762	      9.16879995	     -8.80006756	     -1.52115533	      0.00772508	     -1.86972053
      0.25000000	     -5.91063058	     -2.28209339	     -1.53538579	      0.08919361	      0.95534871	      1.22256789	      8.35331635	      3.72626637	     -0.26083866	    -12.70009054	     11.20269429	     -0.16471399	      6.52385513	     -2.08559434	     -6.79997976	    -11.34415637	      9.20241977	     -8.80591704	     -1.54224721	      0.01024538	     -1.83269008
      0.26000000	     -5.90950043	     -2.28271669	     -1.53569244	      0.08920633	      0.95535242	      1.22253079	      8.35043427	      3.72433751	     -0.25938418	    -12.70001091	     11.20297814	     -0.16401472	      6.52216106	     -2.08389146	     -6.80193694	    -11.34406899	      9.20205294	     -8.80546511	     -1.53757338	      0.01423801	     -1.83297498
      0.27000000	     -5.90933755	     -2.28310601	     -1.53968671	      0.08921189	      0.95535449	      1.22249587	      8.34841137	      3.72230696	     -0.25869281	    -12.69716235	     11.20331845	     -0.16298976	      6.52092435	     -2.08182465	     -6.80398715	    -11.34349485	      9.20149147	     -8.80496137	     -1.53418375	      0.01944645	     -1.83400791
      0.28000000	     -5.90956248	     -2.28361648	     -1.54288635	      0.08922145	      0.95535575	      1.22246180	      8.34613728	      3.72043507	     -0.25812374	    -12.69380832	     11.20339083	     -0.16177651	      6.51972224	     -2.08013592	     -6.80628254	    -11.34244686	      9.20047168	     -8.80453405	     -1.52965173	      0.02468636	     -1.83496355
      0.29000000	     -5.91027884	     -2.28413915	     -1.54595402	      0.08922996	      0.95535681	      1.22242593	      8.34435637	      3.71841103	     -0.25786024	    -12.69016811	     11.20322548	     -0.16058297	      6.51879905	     -2.07830526	     -6.80847603	    -11.34088906	      9.19900640	     -8.80423693	     -1.52493297	      0.03066212	     -1.83627046
      0.30000000	     -5.91146893	     -2.28448112	     -1.54920661	      0.08924290	      0.95535544	      1.22238812	      8.34289203	      3.71620759	     -0.25781597	    -12.68630217	     11.20277964	     -0.15928872	      6.51750233	     -2.07623233	     -6.81088349	    -11.33883096	      9.19697043	     -8.80404406	     -1.51887536	      0.03816095	     -1.83833806
      0.31000000	     -5.91291147	     -2.28463383	     -1.55244205	      0.08925595	      0.95535414	      1.22235278	      8.34214386	      3.71407728	     -0.25794783	    -12.68316564	     11.20216575	     -0.15811519	      6.51631759	     -2.07441696	     -6.81311179	    -11.33640625	      9.19486866	     -8.80399502	     -1.51303881	      0.04601097	     -1.84090784
      0.32000000	     -5.91407278	     -2.28474797	     -1.55619122	      0.08926967	      0.95535231	      1.22231408	      8.34191289	      3.71169058	     -0.25810561	    -12.68120899	     11.20146366	     -0.15708559	      6.51490026	     -2.07214326	     -6.81512900	    -11.33422725	      9.19279215	     -8.80404556	     -1.50704596	      0.05507814	     -1.84389600
